/* XPM */
static char * bitcoin64_xpm[] = {
"64 64 339 2",
"  	c None",
". 	c #262626",
"+ 	c #252525",
"@ 	c #1D1F20",
"# 	c #202122",
"$ 	c #1F2022",
"% 	c #232424",
"& 	c #63544B",
"* 	c #C8A389",
"= 	c #C5A088",
"- 	c #796659",
"; 	c #212223",
"> 	c #4A413C",
", 	c #AA8A76",
"' 	c #AD8D77",
") 	c #806A5D",
"! 	c #473F3A",
"~ 	c #D6AD91",
"{ 	c #CEA68C",
"] 	c #D5AC90",
"^ 	c #504640",
"/ 	c #2A2A29",
"( 	c #B4917B",
"_ 	c #B08F79",
": 	c #B18F7A",
"< 	c #6A5A4F",
"[ 	c #746155",
"} 	c #B3917C",
"| 	c #B2907B",
"1 	c #AF8E79",
"2 	c #7F695C",
"3 	c #957A69",
"4 	c #947968",
"5 	c #836C5D",
"6 	c #202123",
"7 	c #202223",
"8 	c #8B7262",
"9 	c #977A69",
"0 	c #957A68",
"a 	c #766256",
"b 	c #222323",
"c 	c #4A413B",
"d 	c #7D6659",
"e 	c #7B6558",
"f 	c #7C6558",
"g 	c #2B2A29",
"h 	c #302D2C",
"i 	c #7F675A",
"j 	c #7B6557",
"k 	c #7D6658",
"l 	c #423A37",
"m 	c #645249",
"n 	c #614F47",
"o 	c #615047",
"p 	c #3B3532",
"q 	c #403935",
"r 	c #5F4E46",
"s 	c #282827",
"t 	c #252526",
"u 	c #433834",
"v 	c #463B36",
"w 	c #453A35",
"x 	c #3D3532",
"y 	c #242525",
"z 	c #3F3632",
"A 	c #3A312F",
"B 	c #3A312E",
"C 	c #342D2B",
"D 	c #1E1F21",
"E 	c #1E2021",
"F 	c #1F2122",
"G 	c #202222",
"H 	c #212324",
"I 	c #222324",
"J 	c #222424",
"K 	c #232425",
"L 	c #242424",
"M 	c #242425",
"N 	c #252626",
"O 	c #272525",
"P 	c #2B2525",
"Q 	c #2A2524",
"R 	c #2A2425",
"S 	c #373431",
"T 	c #FFD4B1",
"U 	c #FBCAA8",
"V 	c #F4C5A4",
"W 	c #EFC0A0",
"X 	c #E7BA9C",
"Y 	c #E0B598",
"Z 	c #DAAF94",
"` 	c #D3A98F",
" .	c #CBA48B",
"..	c #C59F86",
"+.	c #BE9982",
"@.	c #B6947D",
"#.	c #B08E79",
"$.	c #A88974",
"%.	c #A28370",
"&.	c #9A7D6C",
"*.	c #947867",
"=.	c #8D7362",
"-.	c #866D5F",
";.	c #7F675B",
">.	c #786256",
",.	c #715D51",
"'.	c #6A574D",
").	c #635148",
"!.	c #5C4C44",
"~.	c #554740",
"{.	c #4E403C",
"].	c #473B36",
"^.	c #403632",
"/.	c #39312E",
"(.	c #322B29",
"_.	c #2B2625",
":.	c #262525",
"<.	c #706054",
"[.	c #F9C8A7",
"}.	c #ECBE9F",
"|.	c #E6B89B",
"1.	c #DEB497",
"2.	c #D7AF92",
"3.	c #D2A98F",
"4.	c #CAA38A",
"5.	c #C49E86",
"6.	c #BE9A82",
"7.	c #B6947E",
"8.	c #AA8A75",
"9.	c #A28471",
"0.	c #9C7E6D",
"a.	c #967A68",
"b.	c #8F7465",
"c.	c #887060",
"d.	c #826A5C",
"e.	c #7B6458",
"f.	c #756054",
"g.	c #6E5A4F",
"h.	c #66554C",
"i.	c #5A4B43",
"j.	c #53453E",
"k.	c #4C3F3B",
"l.	c #463A36",
"m.	c #3E3632",
"n.	c #39302E",
"o.	c #312B2A",
"p.	c #2A2626",
"q.	c #907867",
"r.	c #E1B699",
"s.	c #DDB296",
"t.	c #D6AD92",
"u.	c #CFA88E",
"v.	c #C9A38A",
"w.	c #C39E85",
"x.	c #BD9982",
"y.	c #B08F7A",
"z.	c #A98A75",
"A.	c #A38571",
"B.	c #9D806D",
"C.	c #967B69",
"D.	c #907665",
"E.	c #8A7162",
"F.	c #7D6759",
"G.	c #776156",
"H.	c #6A584D",
"I.	c #64534A",
"J.	c #5D4E45",
"K.	c #574942",
"L.	c #51443D",
"M.	c #4A3E39",
"N.	c #443935",
"O.	c #3D3531",
"P.	c #38302D",
"Q.	c #2E2928",
"R.	c #191C1E",
"S.	c #1A1C1E",
"T.	c #1A1D1F",
"U.	c #1B1D1F",
"V.	c #1B1E1F",
"W.	c #1C1E1F",
"X.	c #1C1E20",
"Y.	c #1C1F20",
"Z.	c #1D1F21",
"`.	c #1F2123",
" +	c #212323",
".+	c #232324",
"++	c #B0927C",
"@+	c #B8967F",
"#+	c #B2917C",
"$+	c #AB8C77",
"%+	c #A48673",
"&+	c #9E826F",
"*+	c #977D6B",
"=+	c #917867",
"-+	c #8B7263",
";+	c #846D5F",
">+	c #7E685A",
",+	c #776357",
"'+	c #715E52",
")+	c #6B5A4F",
"!+	c #65544A",
"~+	c #5E4F46",
"{+	c #574A42",
"]+	c #52443E",
"^+	c #4A403A",
"/+	c #443B36",
"(+	c #3E3532",
"_+	c #37312F",
":+	c #2B2626",
"<+	c #EABE9F",
"[+	c #F3C3A3",
"}+	c #EABC9E",
"|+	c #E1B598",
"1+	c #D8AE92",
"2+	c #CFA78D",
"3+	c #C5A087",
"4+	c #BD9981",
"5+	c #B3917B",
"6+	c #AB8A76",
"7+	c #997C6A",
"8+	c #907565",
"9+	c #866E5F",
"0+	c #7E6759",
"a+	c #746054",
"b+	c #6B584E",
"c+	c #625148",
"d+	c #594A42",
"e+	c #50433D",
"f+	c #473C38",
"g+	c #3E3531",
"h+	c #352E2C",
"i+	c #2D2626",
"j+	c #272626",
"k+	c #443E39",
"l+	c #FFD0AE",
"m+	c #F4C4A4",
"n+	c #D7AD92",
"o+	c #BA9780",
"p+	c #A88874",
"q+	c #9E806D",
"r+	c #957969",
"s+	c #8B7162",
"t+	c #786356",
"u+	c #6F5B50",
"v+	c #65534A",
"w+	c #493D38",
"x+	c #372E2C",
"y+	c #2A2727",
"z+	c #403834",
"A+	c #4A3E38",
"B+	c #483C37",
"C+	c #423C37",
"D+	c #413B37",
"E+	c #3F3A36",
"F+	c #3E3834",
"G+	c #3C3734",
"H+	c #3B3632",
"I+	c #3A3532",
"J+	c #383431",
"K+	c #363230",
"L+	c #35312F",
"M+	c #34302D",
"N+	c #322E2D",
"O+	c #2E2C2B",
"P+	c #302A29",
"Q+	c #2E2827",
"R+	c #2D2726",
"S+	c #342E2C",
"T+	c #372F2D",
"U+	c #332D2B",
"V+	c #2E2A29",
"W+	c #292827",
"X+	c #473C37",
"Y+	c #463B37",
"Z+	c #473B37",
"`+	c #322E2C",
" @	c #292828",
".@	c #322D2C",
"+@	c #383330",
"@@	c #564740",
"#@	c #54463F",
"$@	c #4F423D",
"%@	c #544640",
"&@	c #483D38",
"*@	c #554841",
"=@	c #594B43",
"-@	c #473E39",
";@	c #635249",
">@	c #282727",
",@	c #725E52",
"'@	c #34302E",
")@	c #755F53",
"!@	c #725D52",
"~@	c #756053",
"{@	c #3A3431",
"]@	c #423B37",
"^@	c #846B5D",
"/@	c #80685A",
"(@	c #322F2D",
"_@	c #80695A",
":@	c #605048",
"<@	c #6F5D51",
"[@	c #8E7464",
"}@	c #69584E",
"|@	c #8F7464",
"1@	c #897060",
"2@	c #9D806E",
"3@	c #9E806E",
"4@	c #453E39",
"5@	c #A28470",
"6@	c #A38471",
"7@	c #433C38",
"8@	c #B2907A",
"9@	c #AC8B77",
"0@	c #423B36",
"a@	c #272727",
"b@	c #AD8C77",
"c@	c #6E5D51",
"d@	c #BA977F",
"e@	c #B1907A",
"f@	c #907766",
"g@	c #A98975",
"h@	c #BC9881",
"i@	c #C8A288",
"j@	c #C9A389",
"k@	c #363330",
"l@	c #3F3936",
"m@	c #E0B497",
"n@	c #DBB094",
"o@	c #756255",
"p@	c #866F61",
"q@	c #E8BB9D",
"r@	c #E5B99B",
"s@	c #C29E85",
"t@	c #D9AF94",
"u@	c #FDCBA9",
"v@	c #2F2D2C",
"w@	c #2F2D2B",
"x@	c #423C38",
"                                                                                                                                ",
"                                                                                                                                ",
"                                                                                                                                ",
"                                                                                                                                ",
"                                                        . . . . . . . .                                                         ",
"                                                . . . . . . . . . . . . . . . .                                                 ",
"                                          . . . . . . . . . . . . . . . . . . . . . .                                           ",
"                                      . . . . . . . . . . . . . . . . . . . . . . . . . .                                       ",
"                                  . . . . . . . . . . . . . . . . . . . . . . . . . . . . . .                                   ",
"                                . . . . . . . . . . . . . . . . . . . . . . . . . . . . . . . . .                               ",
"                            . . . . . . . . . . . . . . . . . . . . . . . . . . . . . . . . . . . .                             ",
"                          . . . . . . . . . . . . . . . . . . . . . . . . . . . . . . . . . . . . . .                           ",
"                        . . . . . . . . . . . . . . . . . . . . . . . . . . . . . . . . . . . . . . . .                         ",
"                      . . . . . . . . . . . . . . . . . . . . . . . . . . . . . . . . . . . . . . . . . .                       ",
"                    . . . . . . . . . . . . . . . . . . . . . . . . . . . . . . . . . . . . . . . . . . . .                     ",
"                    . . . . . . . . . . . . . . . . . . . . . . . . . . . . . . . . . . . . . . . . . . . . .                   ",
"                  . . . . . . . . . . . . . . . . . . . . . . . . . . . . . . . . . . . . . . . . . . . . . .                   ",
"                . . . . . . . . . . . . . . . . . . . . . . . . . . . . . . . . . . . . . . . . . . . . . . . .                 ",
"                . . . . . . . . . . . . . . . . . . . . . . . . . . . . . . . . . . . . . . . . . . . . . . . . .               ",
"              . . . . . . . . . . . . . . . . . . . . . . . . . . . . . . . . . . . . . . . . . . . . . . . . . .               ",
"            . . . . . + @ @ + . . . . . . . . . . . . . . . . . . . . . . . . . . . . . . . . . . . # $ % . . . . .             ",
"            . . . . . & * = - ; . . . . . . . . . . . . . . . . . . . . . . . . . . . . . . . . . > , ' ) % . . . .             ",
"            . . . . . ! ~ { ] ^ . . . . . . . . . . . . . . . . . . . . . . . . . . . . . . . . / ( _ : < + . . . . .           ",
"          . . . . . . % [ } | 1 . . . . . . . . . . . . . . . . . . . . . . . . . . . . . . . ; 2 3 4 5 6 . . . . . .           ",
"          . . . . . . . 7 8 9 0 a b . . . . . . . . . . . . . . . . . . . . . . . . . . . . . c d e f g . . . . . . .           ",
"          . . . . . . . . h i j k l . . . . . . . . . . . . . . . . . . . . . . . . . . . . g m n o p . . . . . . . . .         ",
"        . . . . . . . . . . q o r r s . . . . . . . . . . . . . . . . . . . . . . . . . . t u v w x y . . . . . . . . .         ",
"        . . . . . . . . . . y z A B C D E $ F F # F G 7 7 ; ; H I I J J % K L y M y + t N O P Q R . . . . . . . . . . .         ",
"        . . . . . . . . . . . S T U V W X Y Z `  ...+.@.#.$.%.&.*.=.-.;.>.,.'.).!.~.{.].^./.(._.:.. . . . . . . . . . .         ",
"        . . . . . . . . . . . . <.[.}.|.1.2.3.4.5.6.7.1 8.9.0.a.b.c.d.e.f.g.h.n i.j.k.l.m.n.o.p.. . . . . . . . . . . .         ",
"        . . . . . . . . . . . . E q.r.s.t.u.v.w.x.7.y.z.A.B.C.D.E.5 F.G.,.H.I.J.K.L.M.N.O.P.Q.. . . . . . . . . . . . .         ",
"        . . . . . . . . . . . . . M R.S.T.T.U.V.W.X.Y.Z.Z.E E F F `.6 ;  + +I I % % M y + t . . . . . . . . . . . . . .         ",
"        . . . . . . . . . . . . . . . . % b b b I I .+.+% % % L M M y y y + + t N N . . . . . . . . . . . . . . . . . .         ",
"        . . . . . . . . . . . . . . . # ++@+#+$+%+&+*+=+-+;+>+,+'+)+!+~+{+]+^+/+(+_+o.:+. . . . . . . . . . . . . . . .         ",
"        . . . . . . . . . . . . . . . E <+[+}+|+1+2+3+4+5+6+%.7+8+9+0+a+b+c+d+e+f+g+h+i+. . . . . . . . . . . . . . . .         ",
"        . . . . . . . . . . . . . . . j+k+l+m+}+Y n+{ 5.o+: p+q+r+s+d.t+u+v+!.j.w+^.x+y+. . . . . . . . . . . . . . . .         ",
"        . . . . . . . . . . . . . . . . y z+A+B+].C+D+E+F+G+H+I+J+K+L+M+N+h O+P+Q+R+:+. . . . . . . . . . . . . . . . .         ",
"        . . . . . . . . . . . . . . . . . N S+T+T+U+t . . . . . . . . . . . V+T+T+T+j+. . . . . . . . . . . . . . . . .         ",
"        . . . . . . . . . . . . . . . . . . W+X+Y+Z+`+. . . . . . . . . .  @X+Y+X+.@. . . . . . . . . . . . . . . . . .         ",
"          . . . . . . . . . . . . . . . . . . +@@@#@@@ @. . . . . . . . y $@%@#@&@y . . . . . . . . . . . . . . . . . .         ",
"          . . . . . . . . . . . . . . . . . . K *@c+c+=@% . . . . . . + -@;@c+c+. . . . . . . . . . . . . . . . . . .           ",
"          . . . . . . . . . . . . . . . . . . . >@,@,.,@c t . . . . . '@)@!@~@{@. . . . . . . . . . . . . . . . . . .           ",
"            . . . . . . . . . . . . . . . . . . . ]@^@/@^@(@. . . . L e /@_@:@% . . . . . . . . . . . . . . . . . . .           ",
"            . . . . . . . . . . . . . . . . . . . I <@[@[@9+I . . .+}@|@[@1@% . . . . . . . . . . . . . . . . . . .             ",
"            . . . . . . . . . . . . . . . . . . . . + &.2@3@)+% . 4@5@2@6@I+. . . . . . . . . . . . . . . . . . . .             ",
"              . . . . . . . . . . . . . . . . . . . . 7@8@9@8@0@a@6+9@b@c@M . . . . . . . . . . . . . . . . . . .               ",
"              . . . . . . . . . . . . . . . . . . . . I 2 o+d@e@f@d@d@g@# . . . . . . . . . . . . . . . . . . . .               ",
"                . . . . . . . . . . . . . . . . . . . . 7 h@i@i@j@i@2+k@. . . . . . . . . . . . . . . . . . . .                 ",
"                  . . . . . . . . . . . . . . . . . . . . l@m@n+n+n@o@+ . . . . . . . . . . . . . . . . . . . .                 ",
"                  . . . . . . . . . . . . . . . . . . . . % p@q@r@s@@ . . . . . . . . . . . . . . . . . . . .                   ",
"                    . . . . . . . . . . . . . . . . . . . . X.t@u@v@. . . . . . . . . . . . . . . . . . . .                     ",
"                      . . . . . . . . . . . . . . . . . . . . w@x@. . . . . . . . . . . . . . . . . . . .                       ",
"                        . . . . . . . . . . . . . . . . . . . . . . . . . . . . . . . . . . . . . . . .                         ",
"                          . . . . . . . . . . . . . . . . . . . . . . . . . . . . . . . . . . . . . .                           ",
"                            . . . . . . . . . . . . . . . . . . . . . . . . . . . . . . . . . . . .                             ",
"                              . . . . . . . . . . . . . . . . . . . . . . . . . . . . . . . . . .                               ",
"                                  . . . . . . . . . . . . . . . . . . . . . . . . . . . . . .                                   ",
"                                    . . . . . . . . . . . . . . . . . . . . . . . . . . . .                                     ",
"                                        . . . . . . . . . . . . . . . . . . . . . . . .                                         ",
"                                              . . . . . . . . . . . . . . . . . .                                               ",
"                                                      . . . . . . . . . . .                                                     ",
"                                                                                                                                ",
"                                                                                                                                ",
"                                                                                                                                "};
