/* XPM */
static char * bitcoin32_xpm[] = {
"32 32 129 2",
"  	c None",
". 	c #262626",
"+ 	c #252525",
"@ 	c #1B1E1F",
"# 	c #242425",
"$ 	c #1D1F21",
"% 	c #3B3633",
"& 	c #DCB295",
"* 	c #705F54",
"= 	c #242525",
"- 	c #524740",
"; 	c #BB9780",
"> 	c #4C433D",
", 	c #222324",
"' 	c #766256",
") 	c #AA8975",
"! 	c #35312F",
"~ 	c #2A2928",
"{ 	c #897061",
"] 	c #725F52",
"^ 	c #212223",
"/ 	c #69574D",
"( 	c #635249",
"_ 	c #493E39",
": 	c #52443E",
"< 	c #282727",
"[ 	c #2C2A29",
"} 	c #A38471",
"| 	c #8D7564",
"1 	c #816C5E",
"2 	c #7B665A",
"3 	c #746156",
"4 	c #6D5C51",
"5 	c #66574D",
"6 	c #605249",
"7 	c #594D44",
"8 	c #534741",
"9 	c #4C423C",
"0 	c #453D38",
"a 	c #3F3734",
"b 	c #383230",
"c 	c #312D2B",
"d 	c #2C2625",
"e 	c #262525",
"f 	c #232424",
"g 	c #867161",
"h 	c #ECBE9F",
"i 	c #DDB396",
"j 	c #D0A78D",
"k 	c #C29D85",
"l 	c #B5927C",
"m 	c #A88874",
"n 	c #9A7D6C",
"o 	c #8C7363",
"p 	c #7F685A",
"q 	c #725D52",
"r 	c #64534A",
"s 	c #574841",
"t 	c #4A3D38",
"u 	c #3C3330",
"v 	c #2C2827",
"w 	c #1A1D1F",
"x 	c #12161A",
"y 	c #13181B",
"z 	c #15191C",
"A 	c #161A1D",
"B 	c #181B1E",
"C 	c #1A1D1E",
"D 	c #1B1E20",
"E 	c #1E2122",
"F 	c #202223",
"G 	c #1C1E20",
"H 	c #E2B799",
"I 	c #D0A98E",
"J 	c #C09B84",
"K 	c #B08F7A",
"L 	c #A0826F",
"M 	c #907666",
"N 	c #80695B",
"O 	c #705D51",
"P 	c #605047",
"Q 	c #50433D",
"R 	c #403733",
"S 	c #302928",
"T 	c #6A5A4F",
"U 	c #9F806E",
"V 	c #927867",
"W 	c #877060",
"X 	c #7C675A",
"Y 	c #705E52",
"Z 	c #65554C",
"` 	c #5A4D44",
" .	c #4F433D",
"..	c #433A35",
"+.	c #39302E",
"@.	c #2C2828",
"#.	c #362F2D",
"$.	c #3C3431",
"%.	c #3B3330",
"&.	c #5C4C44",
"*.	c #50443E",
"=.	c #483E39",
"-.	c #5F4E46",
";.	c #2C2B2A",
">.	c #3F3935",
",.	c #7E6659",
"'.	c #473F3A",
").	c #3B3532",
"!.	c #7D6659",
"~.	c #4D423D",
"{.	c #252526",
"].	c #232324",
"^.	c #736054",
"/.	c #997C6B",
"(.	c #302D2C",
"_.	c #272727",
":.	c #937867",
"<.	c #826B5D",
"[.	c #AE8D78",
"}.	c #9A7E6C",
"|.	c #B6937D",
"1.	c #302E2C",
"2.	c #D8AE93",
"3.	c #D6AC91",
"4.	c #252626",
"5.	c #9C806E",
"6.	c #BD9A83",
"7.	c #1E2021",
"8.	c #292928",
"                                                                ",
"                                                                ",
"                                                                ",
"                      . . . . . . . . . .                       ",
"                  . . . . . . . . . . . . . .                   ",
"                . . . . . . . . . . . . . . . . .               ",
"            . . . . . . . . . . . . . . . . . . . .             ",
"          . . . . . . . . . . . . . . . . . . . . . .           ",
"          . . . . . . . . . . . . . . . . . . . . . . .         ",
"        . . . . . . . . . . . . . . . . . . . . . . . .         ",
"      . . + @ # . . . . . . . . . . . . . . . . + $ # . .       ",
"      . . % & * = . . . . . . . . . . . . . . . - ; > . .       ",
"      . . , ' ) ! . . . . . . . . . . . . . . ~ { ] ^ . . .     ",
"    . . . . = / ( = . . . . . . . . . . . . + _ : < . . . .     ",
"    . . . . . [ } | 1 2 3 4 5 6 7 8 9 0 a b c d e . . . . .     ",
"    . . . . . f g h i j k l m n o p q r s t u v . . . . . .     ",
"    . . . . . . f w x y z A B C D $ E F , = + . . . . . . .     ",
"    . . . . . . . G H I J K L M N O P Q R S . . . . . . . .     ",
"    . . . . . . . + T U V W X Y Z `  ...+.@.. . . . . . . .     ",
"    . . . . . . . . = #.u + = = + + = $.%.. . . . . . . . .     ",
"    . . . . . . . . . < &.*.f . . = =.-.;.. . . . . . . . .     ",
"      . . . . . . . . . >.,.'.. . ).!.~.{.. . . . . . . .       ",
"      . . . . . . . . . ].^./.(._.:.<., . . . . . . . . .       ",
"        . . . . . . . . . . [.}.W |.1.. . . . . . . . . .       ",
"        . . . . . . . . . . > 2.3.5 4.. . . . . . . . .         ",
"          . . . . . . . . . , 5.6.7.. . . . . . . . .           ",
"            . . . . . . . . . + 8.. . . . . . . . .             ",
"              . . . . . . . . . . . . . . . . . .               ",
"                . . . . . . . . . . . . . . . .                 ",
"                    . . . . . . . . . . . .                     ",
"                        . . . . . . . .                         ",
"                                                                "};
